<svg width="1200" height="630" viewBox="0 0 1200 630" fill="none" xmlns="http://www.w3.org/2000/svg">
  <rect width="1200" height="630" fill="#050816"/>
  <rect x="48" y="48" width="1104" height="534" rx="32" fill="url(#panel)"/>
  <rect x="88" y="96" width="232" height="438" rx="24" fill="#0E1629"/>
  <rect x="352" y="96" width="760" height="438" rx="24" fill="#0B1222"/>
  <rect x="120" y="140" width="168" height="18" rx="9" fill="#314158"/>
  <rect x="120" y="182" width="118" height="118" rx="20" fill="#4CD964"/>
  <rect x="252" y="182" width="36" height="118" rx="18" fill="#8AE39A"/>
  <rect x="120" y="320" width="168" height="18" rx="9" fill="#4D5F78"/>
  <rect x="120" y="358" width="168" height="18" rx="9" fill="#314158"/>
  <rect x="120" y="396" width="136" height="18" rx="9" fill="#314158"/>
  <rect x="392" y="150" width="210" height="18" rx="9" fill="#4CD964"/>
  <rect x="392" y="190" width="468" height="24" rx="12" fill="#E8EEF8"/>
  <rect x="392" y="230" width="356" height="16" rx="8" fill="#7788A1"/>
  <rect x="392" y="286" width="680" height="96" rx="28" fill="#111B31"/>
  <rect x="424" y="318" width="152" height="32" rx="16" fill="#4CD964"/>
  <rect x="600" y="318" width="120" height="32" rx="16" fill="#1E293B"/>
  <rect x="744" y="318" width="120" height="32" rx="16" fill="#1E293B"/>
  <rect x="888" y="318" width="152" height="32" rx="16" fill="#1E293B"/>
  <path d="M393 452H862" stroke="#4D5F78" stroke-width="12" stroke-linecap="round"/>
  <path d="M393 488H1004" stroke="#314158" stroke-width="12" stroke-linecap="round"/>
  <text x="88" y="572" fill="#E8EEF8" font-family="Arial, sans-serif" font-size="54" font-weight="700">Nuxt UI Theme Builder</text>
  <text x="88" y="608" fill="#9FB0C8" font-family="Arial, sans-serif" font-size="24">Build, preview, export, and share theme palettes.</text>
  <defs>
    <linearGradient id="panel" x1="80" y1="48" x2="1120" y2="582" gradientUnits="userSpaceOnUse">
      <stop stop-color="#0B1324"/>
      <stop offset="1" stop-color="#08101D"/>
    </linearGradient>
  </defs>
</svg>
